<?xml version="1.0" encoding="UTF-8"?>
<svg id="Layer_1" xmlns="http://www.w3.org/2000/svg" xmlns:xlink="http://www.w3.org/1999/xlink" version="1.1" viewBox="0 0 300.95 300.95">
  <!-- Generator: Adobe Illustrator 30.2.1, SVG Export Plug-In . SVG Version: 2.1.1 Build 1)  -->
  <defs>
    <style>
      .st0, .st1, .st2, .st3, .st4 {
        fill: none;
      }

      .st1 {
        stroke: #121b00;
        stroke-width: 6.4px;
      }

      .st1, .st2, .st3, .st4 {
        stroke-linecap: round;
        stroke-linejoin: round;
      }

      .st5 {
        fill: #426a04;
      }

      .st2 {
        stroke: #426a04;
        stroke-width: 3.22px;
      }

      .st3 {
        stroke-width: 6.69px;
      }

      .st3, .st4 {
        stroke: #ebc453;
      }

      .st4 {
        stroke-width: 5.75px;
      }

      .st6 {
        fill: #7dd3cd;
      }

      .st7 {
        clip-path: url(#clippath);
      }

      .st8 {
        fill: #fa8bab;
      }
    </style>
    <clipPath id="clippath">
      <circle class="st0" cx="150.47" cy="150.47" r="150.47"/>
    </clipPath>
  </defs>
  <circle class="st6" cx="150.47" cy="150.47" r="150.47"/>
  <g class="st7">
    <g>
      <g>
        <g>
          <g id="Gt7s1R">
            <g>
              <path class="st8" d="M47.06,101.14c10.58-5.08,24.21,5.38,32.26,11.17.64-4.86,1.19-9.39,4.66-12.26,8.06-6.66,24.6,6.44,31.96,11.54,4.47-6.77,13.03-20.68,22.77-13.26,2.99,2.28,5.59,5.6,7.34,8.78-4.31,12.85-3.25,26.31-.45,39.96-32.02-.23-34.31,2.22-62.77-13.28-13.98-8.68-26.43-19.04-35.77-32.66Z"/>
              <path class="st8" d="M245.86,125.4c-7.96,4.81-16.2,8.1-24.97,10.91-6.41-3.65-13.08-5.79-20.39-6.61.32-5.87.2-11.58-1.68-16.99-2.66-7.66-10.19-11.99-17.99-9.63-3.55,1.07-6.85,3.06-10.02,5.08-1.66-3.25-3.23-6.36-5.39-8.82-4.01-4.57-10.79-4.51-14.68,0l-2.77,3.21c-2.48-3.31-4.92-5.92-8.47-8.68,6.5-7.65,13.99-16.11,23.49-19.82,6.26-2.04,11.92.32,15.29,6.02,3.47,5.88,4.73,12.68,6.07,19.75,6.91-5.66,23.21-14.5,29.78-7.92,5.06,5.07-.28,15.84-3.61,21.92,7.3-2.95,23.98-9.89,31.15-5.45,4.51,2.79-4.56,13-6.98,15.88l5.66-.77c1.79-.25,3.73.25,5.52,1.91Z"/>
              <path class="st8" d="M248.13,95.84c4.13-.56,7.29,1.71,7.48,5.6.14,2.91.04,6.48-1.58,8.95-1.46,2.23-4.88,2.81-7.35,2.94,1.02-5.57-2.43-9.62-7.96-10.28-6.59-.79-13.08,1.11-20.04,3.12,1.18-4.43,2.24-8.81.84-12.95-1.87-5.54-7.59-8.17-13.38-7.62-6.76.64-12.73,3.56-18.86,7.3-1.57-5.38-3.16-10.96-6.24-15.77-4.77-7.45-12.77-9.76-21.62-6.05,2.31-8.25,6.09-18.79,12.07-24.87,2.15-2.19,5.65-1.83,7.45.65,2.58,3.56,3.87,7.28,5.54,11.75,7.17-1.35,7.99-3.75,16.38-5.48,4.66-.96,8.78,1.6,9.94,6.16,1.84,7.27.25,12.98,2.31,15.13.58.6,2.74.78,3.52.47l9.02-3.61c.98-.39,3.6-.21,4.45.41,5.88,4.26-.37,21.04,2.83,24.27.76.77,3.09,1.52,4.2,1.37l10.99-1.48Z"/>
              <path class="st8" d="M195.98,133.47c9.73.47,18.91,2.71,27.01,9.16l-39.81,3.99-33.32.46c-3.28-12.67-4.8-33.51,3.16-44.67,1.5-1.14,3.21-2.34,4.7-2.48,5.95-.56,9.55,10.39,11.03,15.15,4.09-3.5,8.3-6.68,13.15-8.12,6.02-1.79,11.2,1.27,13.14,7.04,2.11,5.9,1.98,11.82.93,19.48Z"/>
              <path class="st8" d="M104.57,85.08c-10.14-3.59-19.53-7.23-30.41-7.31-1.52-4.12-3.09-13.04.86-15.42,6.04-3.64,18.04,4.28,23.75,7.93.95.6,3.4,1.07,4.51.79s2.47-2.24,2.74-3.71l2.92-15.59c.45-2.41,2.6-4.85,4.3-5.5,1.92-.73,6.44-.85,7.25,1.48l4.82,13.76c.25.71,1.4,1.92,2.07,2.01,4.68.65,7.82-22.61,13.08-20.86.71.24,1.89,1.63,2.03,2.44l2.25,12.88c.45,2.55.81,5.76,3.1,7.36,3.84,2.69,13.08-17.24,14.59-20.3.45-.92,2.4-1.24,3.18-.62.66.53.44,1.81-.25,2.83-5.42,8.02-7.8,17.08-11.07,26.37-4.54,3.98-9.47,8.23-14.1,13.01-3.46-6.08-7.54-11.42-13.22-14.79-5.4-3.2-11.51-2.77-15.9,1.83-2.91,3.04-4.74,6.75-6.51,11.41Z"/>
              <path class="st8" d="M76.32,105.27c-5.51-3.66-8.7-9.7-10.18-15.69-.88-3.56,1.45-6.7,4.93-7.29,11.42-1.93,24.93,4.21,35.98,8.06,1.47-4.65,3-8.84,5.58-12.4,3.34-4.62,8.9-5.35,13.53-2.04,5.95,4.25,9.94,10.5,12.79,17.58-10.89-4.76-18.37,4.56-24.06,12.41-6.31-4.42-12.82-8.82-20.22-11-8.38-2.48-15.67,1.13-18.34,10.37Z"/>
            </g>
          </g>
          <path class="st5" d="M154,253.11c25.13-8.37,26.8-55.04,27.53-77.17l.82-24.75c-21.95-1.66-44.09-1.59-66.38-.04l1.36,35.99c.42,11.12,1.93,21.7,4.07,32.53,3.56,13.59,8.71,28.23,23.03,33.45,0,0,2.51.9,5.05.82,2.78-.08,4.52-.82,4.52-.82v-.02Z"/>
        </g>
        <g>
          <g>
            <path class="st1" d="M149.16,258.07s0,35.19,8.96,81"/>
            <path class="st5" d="M158.12,276.92s9.55-32.46,44.76-27.42c0,0-3.88,33.39-44.76,27.42Z"/>
          </g>
          <g>
            <line class="st3" x1="137.17" y1="165.97" x2="140.61" y2="183.42"/>
            <line class="st3" x1="154.91" y1="163.71" x2="158.35" y2="181.16"/>
            <path class="st4" d="M172.21,186.18c0,15.24-10.39,27.6-23.2,27.6s-23.2-12.36-23.2-27.6"/>
          </g>
        </g>
      </g>
      <line class="st2" x1="143.39" y1="201.69" x2="151.69" y2="185.79"/>
    </g>
  </g>
</svg>