<?xml version="1.0" encoding="UTF-8"?>
<svg id="Layer_1" xmlns="http://www.w3.org/2000/svg" xmlns:xlink="http://www.w3.org/1999/xlink" version="1.1" viewBox="0 0 110.47 110.47">
  <!-- Generator: Adobe Illustrator 30.2.1, SVG Export Plug-In . SVG Version: 2.1.1 Build 1)  -->
  <defs>
    <style>
      .st0 {
        fill: url(#linear-gradient);
      }

      .st1 {
        fill: #fff;
      }
    </style>
    <linearGradient id="linear-gradient" x1="0" y1="55.23" x2="110.47" y2="55.23" gradientUnits="userSpaceOnUse">
      <stop offset="0" stop-color="#fed530"/>
      <stop offset=".24" stop-color="#fd7a23"/>
      <stop offset=".47" stop-color="#fc136b"/>
      <stop offset=".62" stop-color="#d11dc3"/>
      <stop offset="1" stop-color="#7643f6"/>
    </linearGradient>
  </defs>
  <circle class="st0" cx="55.23" cy="55.23" r="55.23"/>
  <g id="NjaSGy">
    <g>
      <path class="st1" d="M9.8,59.95c-1.2,1.77-2.49,4.69-.27,5.37.39.12.95-.14,1.25-.29l3.63-1.95c4.87-2.61,4.22-7.13,5.67-6.85.19.04.43.47.37.66-.9,2.8-1.85,4.98-4.32,6.67-1.27.87-4.14,2.61-5.74,2.5,1.27.58,1.95.07,2.43.59.08.09-.22.39-.36.41l-1.6.17c-1.56.17-3.2-.88-3.62-2.42s-.06-3.08.72-4.45c1.85-3.28,4.73-5.88,8.14-7.43,1.73-.78,3.47-.71,4.91.49,2.33,1.93,1.4,4.46.24,6.71.44.71.8,1.63.99,2.45,2.12,2.37,4.53,4.33,7.05,6.28l5.68,4.41,1.56.98,4.07,3.12.18-8.19c0-.07.82-1.84,1.15-1.8l-.6-.83c-.56.46-.99.83-1.53,1.03-.66.25-1.36-.14-1.53-.81-.21-.81-.04-2.56.9-2.4.16.03.38.36.4.54l.1,1.01,1.37-1.12c.15-.13.63-.23.79-.15.5.25.63,1.48,1.51,1.99.67-.36-.16-2.14,1.47-2.98l-1.36-.81c-.12.66-.54,1.31-1.11,1.49-.69.22-1.5.14-1.91-.59-.27-.48-.17-1.19-.06-1.77l-.85-.51-1.75,1.75,1.24.3c-.14.68-.53.95-1.05,1.2-1.94.94-2.21-.1-2.4,0l-.51.27c-.41.22-5.14,1.77-5.52.81-.98-2.25,4.1-5.74,6.1-5.86-.11-1.05.37-1.93,1.39-2.39-.08-.17-.22-.41-.32-.52-.11-.14-.64.1-.84.04-.56-.18-1.46-.41-2.17-.26-1.54.32-2.88.86-4.18,1.65,1.83,1.4,5.19-.13,6.03.76-1.17,1.71-7.77,1.5-7.33-1.23,1.76-1.73,3.3-2.2,5.83-2.69-2.5-1.2-4.51-3.04-5.52-5.59-.6-1.52,4.62-2.46,9.74.9.8.53,2.42,2.1,1.7,3.18-.53-.17-.94-.59-1.32-1.04-1.55-1.85-6.05-3.54-8.66-3,1.68,2.66,2.95,3.39,5.64,4.77.69-1.78,4.2-.54,5.36.45.75-.8,1.99-4.65,3.38-3.8.66.4.18,3.07.46,4.31,1.38-.36,2.51-.58,3.93-.66-1.82-1.37-2.78-3.45-2.96-5.74-.05-.67-.19-1.42.35-1.94.27-.26.62.37.84.49,1.96,1.07,3.97,1.87,6.04,2.71l.09-.82c.6-.72,1.6-.84,2.46-.98l.24-.8c.16-.52,1.27.18,1.66-.74.1-.25,0-.65-.05-.97l-.65-4.93c-.56.16-.96.05-1.28-.27-.26-.26-.5-.87-.06-1.19.31-.23.81.18,1.22.48l-.29-2.76c-1.05.21-1.87-.28-2.19-1.1-.96,2.23-1.85,4.45-1.98,6.89.63,1.17,1.19,2.43,1.81,3.62l.29.56c.07.13-.13.42-.33.54l-.77-.93c-.62-.75-1.21-1.47-1.75-2.29-1.2-1.84-2.52-3.55-4.05-5.13-.56.66-1.09,1.15-1.87,1.41-.32.11-.81-.17-.92-.47-.28-.76,1.16-1.71,2.17-1.58l-1.83-1.82c-.43.77-1.11,1.31-2.11,1.32-.21,0-.57-.35-.59-.56s.13-.7.34-.83l1.42-.85-1.19-1.13c-.57.36-.89.55-1.48.71-.26.07-.75-.25-.83-.49s.08-.72.29-.83l.9-.48-1.52-1.44-.73.86c-.15.17-.67.18-.86.07s-.43-.59-.33-.79c.24-.45.59-.65,1.08-.9l-1.46-1.35c-.36.61-1.02,1.01-1.68.85-.16-.04-.45-.35-.5-.51-.06-.18.11-.61.27-.71l.9-.57-2.77-2.79c-.41.5-.91.77-1.63.79-.29,0-.66-.33-.72-.59-.05-.23.23-.68.47-.74l1.04-.27-.94-.94c-.29.33-.6.57-.96.59s-.91-.22-1.04-.51c-.28-.62.38-.92.88-1.04-.52-.59-1.19-2.54-.29-2.68.97-.15.5,1.43,1.69,2.25l.61-1.24c.09-.18.53-.33.71-.3.84.15.15,1.87-.22,2.5l.89.89c.27-.46.56-.96.92-1.19.14-.09.57-.03.71.05s.28.5.22.67l-.52,1.51c-.07.2.3.69.44.62.32-.47.83-2.29,1.68-1.9.18.08.42.59.34.78l-.95,2.29,1.32,1.19c-.12-.89-.36-3.1.73-3.16.2-.01.57.36.56.59l-.03,2.14c0,.47-.61.68-1.05.64l6.18,5.77c.06-.65.37-2.91,1.47-2.6.28.08.51.51.46.79l-.41,2.27-.38.66.9.87c1.13-2.92,3.25-6.26,5.05-8.77.55-.77,1.28-1.08,2.05-1.5,2.75-1.48,6.96-1.73,9.54.25,4.1,3.15,5.22,6.66,6.28,11.72,3.01-6.59,6.8-13.02,13.45-16.37-.47-.7.87-2.68,1.56-2.39.19.08.39.59.29.78l-.47.87c1.24-.12.62-.51,2.41-2.1.09-.08.56-.18.63-.08l.41.63,1.61-.37c.12-.03.47.1.57.17.12.09.02.53-.11.62l-.98.67.85.5c-1.05.94-2.19.65-3.23.07-.55-.04-1.25.34-1.76.67-1.7,1.12-3.39,2.1-4.93,3.48,2.59-.99,4.97-1.85,7.57-2.49l2.28-.55c.71-.17,2.02-1.41,3.01-.99.13.06.06.56-.05.66-1.32,1.08-2.13.84-3.22,1.48l2.04,1.27c.21.13.62.37.67.58.07.29-.26.67-.52.76-.33.12-.63-.36-.87-.46-1.06-.46-2.02-.88-2.94-1.67-3.23.81-6.25,1.91-9.24,3.28-.6.27-1.09.57-1.57.93,3.59-1.09,6.76-2.41,10.61-1.7.45.08.75.56.66.93-.1.44-.59.61-1.04.57l-.35-.03c-.07,0,0,.11.05.27l.14.51c.03.12-.37.37-.49.35l-1.69-.34-1.82.88c.55.2,1.06.32,1.18.72-.61.63-1.78.52-2.13-.31l-.9.4.54.96c.74-.09,3-.55,3.86-.29l-2.05.74c-2.66.96-5.31,1.81-7.87,3.11.28,2.22.42,4.39.2,6.62-.09.94-.79,1.71-1.23,2.58l2.03-.99c-.6-.12-.99-.78-.74-1.37.58-1.38,1.29-2.66,1.95-4.02l1.83-3.76c.09-.19.48-.44.68-.49.22-.06.75.13.88.34l1.16,1.88c.62-.21,1.44-.58,2.08-.32,1.25.5,1.76,1.88,1.62,3.16,1.14.2,1.84,1.27,1.71,2.36-.02.15-.19.54-.34.53l-.68-.05-.35,1.3c-.07.25.14.87-.03,1.06-.25.28-.5.47-.93.81l.79.62c1.6-2.05-.18-1.99.6-2.85.26-.29.86-.32,1.19.02.57.6.56,1.45.31,2.32-.16.55-.95,1.09-1.5,1.46-.17.12-.26.67-.46.72-.62.14-1.48-.98-2.05-1.58-.36-.73.26-1.41.65-1.98l-1.9-1.32c-.2-.14-.48-.55-.5-.77-.03-.62.67-.69.97-1.33.25-.52-1.52,0-1.7-1.31-.16-1.14-.67-2.19-1.33-3.16l-3.15,6.22c-.25.49-.38.97-.59,1.49.92-.26.87.46,1.21.84,4.61,5.12,9.12,2.61,9.16,3.87,0,.19-.25.55-.44.63-3.04,1.25-8.35-.69-9.43-4.02-.95.46-1.85.98-2.84,1.63,2.2.47,5.62,2.3,6.38,4.6.22-.02.8.14.7.35-.72,1.67-3.93.78-5.34.45-1.14-.26-2.21-.74-3.23-1.3-.66.73-1.46,1.29-2.37,1.87,2.39.4,4.8.99,7.16,1.61.42-.44.91-.59,1.51-.65l4.03-.4c.68-.88,1.14-2.19,2.11-2.92,1.85-1.38,4.3-1.47,6.49-1.09l.49.08c.73.13-1.27,2.76-2.7,3.6-1.58.93-4.28,1.7-6.04,1.29l-3.98.71c1.43.5,2.74,1.14,4,2,0-1.52,3.99.13,4.76.48,4.19,1.87,5.15,6.32,5,10.56-.08,2.31-.8,4.45-1.97,6.46-2.02,3.46-5.3,6.87-9.02,8.52-.09-.1-.19-.33-.11-.4.62-.51,2.34-2.34,3.3-3.26,3.16-3,6.31-7.08,6.42-11.62.04-1.84-.08-3.61-.71-5.3-1.26-3.37-4.01-4.14-7.27-5.12.43.78.79,1.47.76,2.32,0,.14-.5.1-.58-.02-.88-1.48-2.16-2.4-3.78-3.03-2.58-1-8.94-2.87-11.7-2.62,1.94,1.86,4.31,2.91,6.89,3.57,1.51.39,2.96.73,4.51.91l.43.05c.11.01.18.34.08.39s-.37.13-.5.13c-3.84.21-7.49-.63-10.74-2.88.68,3.11,2.02,4.97,5.16,5.91,3.22.96,6.59.67,9.76-.51l-.17-.91c.39-.16,1-.2,1.4.05,2.92,1.8,3.41,5.75,2.37,8.68-.99,2.78-2.85,5.72-4.98,7.58-.08.07-.42-.27-.36-.4,1.22-2.81,2.72-3.84,4.06-7.38.89-2.34.68-5.8-1.58-7.32-1.15.8-2.32,1.47-3.72,1.87.9.72,1.87,1.86,1.31,3.02-.13.26-.77.41-1.14.49v16.15c.01,1.84.62,6.78-.76,7.68-.27-.03-.51-.49-.52-.75l-.14-4.95-.02-5.57.06-9.92-2.95.37c-.07.3-.24.9-.34,1.07-.4,0-.59.13-.78.34-4.41-.83-.68-1.21-6.08-.93-2.25.12-4.4.18-6.63.08-1.5,1.72-3.1,3.43-5.07,4.57l-1.19.68c-1.58-1.87-1.38-3.28-1.51-5.8-1.52.83-5.17.68-7,.57l-3.18-.2c-1.22-.08-2.32-.3-3.68-.47l-.12,7.54.03,3.16c.02,1.81.02,3.64-.66,5.34-.76.2-1.39-.67-1.31-1.44.17-1.81.24-3.56.21-5.34l-2.43-1.7-1.34-.91-4.41-3.42-5.09-3.95c-2.43-1.89-4.69-3.91-6.59-6.36.02-2.78-1.28-1.13-.14-4.63.28-.86.63-1.75.37-2.65-.45-1.54-2.21-2.44-3.69-1.86-.39.15-.93.25-1.26.42-2.55,1.29-4.66,3.24-6.25,5.58ZM57.86,38.61l1.36-1.21c.14-.12.6-.11.74,0,.85.65-1.14,2.22-1.95,2.4l.8,5.85c.62-.04,1.15.17,1.63.49,1.17-.75,2.56-1.01,3.83-.4,1.01-1.4,2.75-1.52,3.91-.39.34.33.61.81.83,1.22.51-.12,1.26-.33,1.7-.03s.38.83.57,1.51l1.31-1.06c-.49-.52-.81-1.01-.92-1.74-.5-3.21.7-6.24,2.87-8.55-1,.41-1.88.82-2.67,1.34l-1.13,2.29c-.17.35-.36.52-.28.89.3,1.55.33,3.01.19,4.46l-.61-1.16c-.54-1.03-.76-2.23-.98-3.39-.97-4.94-1.45-8.52-5.2-12.04-1.36-1.28-2.99-1.99-4.92-1.88-5.5.29-5.58,1.63-7.92,5.98-1.01,1.87-1.74,3.75-2.11,5.81l2.06,2.4c.54-2.89,2.59-7.67,3.97-10.08.51-.89,2.05-1.69,3.11-.93,3.42,2.47,4.59,6.22,5.72,10.22.22.77.89,4.35.11,4.34-.15,0-.47-.22-.51-.37l-.38-1.4c-.61-2.28-1.17-4.38-2.01-6.6-1.54-4.08-4.77-6.06-4.51-5.21l.11.34.44,1.42c.55,1.77.11.44.52,2.21l.57-1.1c.2-.38.42-.64.98-.87.46.77-.66,2.95-1.47,3.31l.27,1.91ZM80.14,30.85l4.84-2.13c.66-.29,1.3-.24,2.1-.21-.12-.07-.59-.34-.79-.4-3.31.07-7.13,1.43-10.18,2.7-.64.89-1.22,1.79-1.81,2.84,1.93-.97,3.77-1.89,5.84-2.8ZM72.78,36.3c2.79-1.44,5.44-2.82,8.41-3.79l-1.31-.5-4.13,2.05c-1.1.55-2.13,1.22-2.97,2.24ZM56.29,36.35l-.09-2.51c-.01-.33-.41-.9-.5-1.22l-1.3,3.05c.77-.03,1.31.27,1.9.68ZM73.07,45.4c3.07-3.07,2.19-4.03,2.21-8.13-1.55,2.01-2.86,5.35-2.21,8.13ZM86.37,40.49l-.03-.84c-1.21-.16-.67-1.47-1.54-2.09-.25-.17-.92.04-1.14.18l.15,1.17c.77.1,1.4.55,1.77,1.19l.8.39ZM86.3,42.81c-.06-.72-.28-.99-.74-1.39l-.53.66,1.27.73ZM66.81,46.45c.19.1.52.51.53.73l.08,1.64,2.58-1.05c-1.11-.11-1.76-.17-2.33-1.05-.23-.36-.85-.87-1.32-.83-.71.06-1.2.69-1.62,1.19-.97.18-1.4-.97-2.95-.24l1.76,1.83c.75-.57,2.26-2.79,3.28-2.24ZM59.74,49.4l.35-2.34c-.95-.52-1.23.43-1.96,1.21l1.61,1.13ZM80.85,51.67c-1.18-1.28-2.47-2.34-4.01-3.09-2.34-1.14-3.89-.42-3.58.05.59.88,1.45,1.48,2.4,1.84,1.65.63,3.31,1.09,5.19,1.2ZM42.06,61.15c.27.48-.63,1.16-.32,1.84,2.38-.72,1.29-1.45,2.13-1.58.23-.03.54.24.72.42.63.59,1.54.11,1.9-.51.21-.05.63.06.72.22s.17.57.13.77c-.16.79-.95,1.14-1.81,1.29.41.71,1.59.87,2.26.33.49-.29.21-3.05,1.21-2.63.53.22.49.97.56,1.61.9-1.17,1.78-2.3,2.93-3.27,3.39-2.85,7.04-.27,7.03-.03l-.04.54.82-.48c.08-.05.36.06.41.14s.04.34-.02.44c-1.19,2.1-2.59,5.23-2.85,7.69-.25,2.35-.13,4.64.27,6.92.31-1.01.49-1.86.86-2.73,1.26-3,1.94-6.04,2.32-9.28.3-2.57,1.63-2.92,1.44-2-.21.97-.45,2.02-.56,3.02-.35,3.2-1.15,6.14-2.47,9.22,2.03-1.62,4.6-3.96,4.53-6.7-.06-2.05-.31-3.99-.65-6-.09-.53.32-.84.78-.96l-.53-3.04c-.11-.64.08-1.15.53-1.65-.01-.06-.44-.25-.6-.23l-1.32.19c.15.83.94,4.94-.4,4.8-.19-.02-.45-.4-.48-.62l-.37-3.61c-.05-.45.09-1.52.63-1.57l2.13-.21c.39-.04,1.03.14,1.42.07,2.04-.39,3.9-1.22,5.59-2.22-.48-.14-.89-.26-1.01-.51-.3-.66.84-.99.96-1.8-1.25-.24-3.33,1.36-4.2,1.06-.79-.28-.42-1.36-.63-2.06l-1.89,1.75c-.25.23-1.19.22-1.42,0l-1.53-1.4-.19,1.51c-.02.15-.13.52-.27.54s-1.39.02-1.47-.02l-1.54-.81c.49.87.95,1.6,1.53,2.4s2.03,1.22,1.7,1.51c-1.31,1.13-3.5-2.53-4.13-3.54-.75-.05-1.58-.03-2.38.07.64,1.48,1.79,2.32,3.23,2.89.41.16,3.11,1.12,2.6,1.64-.59.61-2.26-.02-3.03-.31-1.44-.55-2.67-1.35-3.52-2.64-.24.03-.73.09-.94.01l-2.73-1.01c1.33,1.33,2.82,2.2,4.38,3.14l2.4,1.46c.12.07.39.4.26.43l-.45.12c-3.91-1.38-6.24-3.48-9.41-6.13.51,3.43,3.5,5.27,6.67,5.97.69.15,1.33.35,1.99.68-.98,1.65-4.72.07-5.97-.64-.1,1.1-.94,1.78-1.88,2.32.77.03,1.45-.04,1.86.53.3.42.34,1.09.04,1.55s-.82.93-1.56.55l.52-1.35-1.48-.02c-.24,0-.62-.45-.52-.68.08-.18.45-.37.7-.47l-.45-.31c-.1-.07.08-.51.17-.61l.98-1.04c-1.78-.13-3.16,1.01-4.22.29-.28-.19-.6-.71-.62-1.12l-.09-1.95-1.05,1.89c.78.65,1.61,1.1,1.55,2.21l-1.45-.55.44,1.37-2.02,1.45c-.15.11-.38.59-.26.71.51.47,1.2.29,1.43.7ZM85.82,53.02c1.26-.17,2.13-.43,3.11-.77,1.06-.46,2-1.04,2.67-2.1-2.32.2-4.85.53-5.78,2.87ZM74.62,64.74c-.19-.45-.19-.96-.07-1.45-2.47-.74-4.31-2.5-5.09-4.96l-1.29-4.04-1.12.41c.58,5.7,3.57,7.17,6.5,10.97.93,1.2,1.53,2.52,1.45,4.08.52.55,1.09.96,1.8,1.19-.47-2.38-1.24-4.01-2.18-6.2ZM39.51,59.17l1.77-1.32-.46-1.71-1.49-.7c-.8-.37-1.5-.68-2.46-.46.7,1.19,1.31,2.29,2.22,2.78.19.1.2.69.02.79-1.08.58-1.75-.14-2.02.88.72.06,1.81.18,2.41-.27ZM74.03,68.52c-.55-1.22-1.22-2.28-2.08-3.23l-2.57-2.85c-1.9-2.11-3.02-4.7-3.2-7.55l-1.57.05c.21.37.39.77.45,1.16.62,3.8,1.41,6.41,4.21,9.19,1.66,1.65,3.46,3.04,5.42,4.34l-.67-1.1ZM55.57,60.48c.31-.26.69-.48,1.12-.76-2.22-.54-4.17,1.66-5.42,3.4-.86,1.21-1.7,2.42-2.05,3.89,1.97-2.39,4.01-4.55,6.35-6.54ZM49.91,67.77c2.32-.77,4.01-2.19,5.56-3.77.9-1.21,1.68-2.37,2.44-3.68-.6.17-1.15.4-1.6.8-2.32,2.04-4.49,4.17-6.4,6.65ZM38.04,60.9l-1.67-.12c-2.13.9-4.1,1.95-5.46,3.93,1.27-.24,2.41-.55,3.61-.94,1.78-.57,2.1-1.74,3.52-2.87ZM69.55,69.41l2.16-.15c-2.79-2.28-4.65-3.88-6.43-7.08l.3,3.79c.1,1.25-.12,2.3-.65,3.56,1.51,0,3,0,4.62-.12ZM53.92,69.37c.84.03,1.57.13,2.41.31.07-2.05.57-3.93,1.27-6.09-1.75,2.54-4.2,4.38-7.11,5.64l3.43.14ZM82.24,65.86c-.68-.84-1.18-1.3-1.81-1.88-1.59.09-3-.03-4.63-.25.14,1.91,4.88,2.28,6.43,2.13ZM42.5,68.63l4.77.45c.17-1.38.41-2.45.86-3.63-1.11.25-2.17.21-3.08-.35l-.12,1.76c-.03.46-.62.96-.98,1.05-.49.12-1.11.02-1.62-.17l.18.89ZM80.99,68.7l-.03-1.46c-1.55.03-2.73-.17-4.12-.66l.81,2.23,3.35-.12Z"/>
      <path class="st1" d="M34.1,87.66c-1.23-.61-1.94-1.58-2.83-2.43-1.04-.99-2.06-1.91-3.04-2.98l-6.34-6.89c-2.84-3.09-3.74-4.88-7.03-8.14-.16-.16-.18-.76-.04-.94.72-1.02,3.53,2.21,4.03,2.83,2.2,2.75,4.42,5.3,6.82,7.89l6.23,6.7,2.36,2.61c.16.17.31.45.38.62.07.19-.3.84-.54.73Z"/>
      <path class="st1" d="M67.76,25.7c-.59-.38-1.32-.88-1.32-1.61,0-.16.17-.48.29-.5.64-.09.37.65,1.62,1.3l1.08.56-.61-4.29c-.74.3-1.21-.38-1.83-.47-.58-.08-1.56.27-2.04-.37-.08-.1-.15-.42-.05-.49s.39-.17.53-.15l1.1.12-.65-1.56c-.05-.13.15-.53.27-.56s.46.09.51.21l.55,1.28c.25.58.87.92,1.47,1.19l-.7-3.99c-.04-.2.08-.62.24-.72.18-.11.68.11.73.34l.73,3.25.74-1.35c.1-.18.67-.28.86-.11-.13,1.12-.62,2.26-1.35,3.13l.85,5.69c.33-.57,1.26-1.3,1.81-.82.33.8-.89,1.63-1.71,1.46l.29,2.43c.2,1.64.11,4.04-.2,5.48-.02.09-.33.24-.37.19-.05-.07-.2-.27-.21-.38l-.13-1.73c-.18-2.26-.28-4.48-.69-6.63-.78-.14-1.19-.51-1.81-.9Z"/>
      <path class="st1" d="M40.83,47.43c.81.8,2.58,2.74,1.67,4.07l-2.08-2.65c-1.59-2.02-7.14-5.91-6.88-6.65.24-.68,1.56.26,1.9.53,1.9,1.51,3.66,3.01,5.38,4.7Z"/>
      <path class="st1" d="M42.05,27.95c1.22-.01.96,3.72-.15,3.52-.18-.03-.52-.36-.52-.57v-2.31c0-.27.44-.64.67-.65Z"/>
      <path class="st1" d="M44.45,30.47c.89.11.82,3.35-.15,3.24s-.75-2.11-.57-2.79c.06-.22.52-.47.72-.45Z"/>
      <path class="st1" d="M48.88,42.65c.42.89-1.69,1.14-2.41,1.15-.22,0-.59-.38-.6-.58-.02-.91,2.62-1.41,3.01-.57Z"/>
      <path class="st1" d="M71.09,25.08c-.39-.29.74-4.61,1.32-3.67l.32.53c-.19,1.17-.33,2.5-1.64,3.14Z"/>
      <path class="st1" d="M40.32,43.07c.84.3.25,2.42-.4,2.63-.14.04-.54-.08-.6-.24-.34-.91.18-2.68.99-2.38Z"/>
      <path class="st1" d="M48.68,45.12c-.48-.07-.54-.71-.31-.98.65-.75,1.86-.95,2.25-.39.34.5-.86,1.52-1.94,1.37Z"/>
      <path class="st1" d="M34.76,29.83c-.48.16-.96-.09-1.04-.47s.18-.78.65-.91c.31-.08.78.14.91.39.18.34-.08.84-.53.98Z"/>
      <path class="st1" d="M36.56,46.43c0,.53-.6.66-.96.6-.4-.07-.82-.33-.7-.91.08-.36.61-.51.95-.44.26.05.71.41.7.75Z"/>
      <path class="st1" d="M38.23,49.45c-.3-.01-.71-.43-.7-.68.01-.28.38-.66.68-.69.44-.04.82.22.89.57.07.39-.22.83-.86.81Z"/>
      <path class="st1" d="M42.5,47.31c-.49.11-.71-.34-.68-.64.03-.27.38-.63.73-.54.15.04.35.38.37.53.02.18-.22.61-.42.65Z"/>
      <path class="st1" d="M10.9,61.71c-.18.14-.52.24-.66.18s-.32-.35-.3-.5.24-.38.43-.46c.15-.07.49-.01.6.09s.06.59-.07.69Z"/>
      <path class="st1" d="M13.47,60.35c.11-.09.55-.11.66-.01.13.11.14.46.03.6s-.55.11-.73.03c-.16-.07-.12-.49.04-.62Z"/>
      <path class="st1" d="M12.64,62.55c.11-.09.55-.11.66-.01.13.11.14.46.03.6s-.55.11-.73.03c-.16-.07-.12-.49.04-.62Z"/>
      <path class="st1" d="M17.53,56.75c.11-.09.55-.11.66-.01.13.11.14.46.03.6s-.55.11-.73.03c-.16-.07-.12-.49.04-.62Z"/>
      <path class="st1" d="M15.8,56.21c.11-.09.55-.11.66-.01.13.11.14.46.03.6s-.55.11-.73.03c-.16-.07-.12-.49.04-.62Z"/>
      <path class="st1" d="M16,59.55c.15-.09.57-.03.64.1s.02.42-.08.53-.46.09-.6.02c-.16-.08-.14-.55.04-.65Z"/>
      <path class="st1" d="M13.08,58.09c.15-.09.57-.03.64.1s.02.42-.08.53-.46.09-.6.02c-.16-.08-.14-.55.04-.65Z"/>
      <path class="st1" d="M14.8,61.03c.12-.09.57.02.62.17s.02.39-.09.49-.5.12-.63.05c-.16-.08-.07-.59.1-.71Z"/>
      <path class="st1" d="M9.45,63.61c.12-.09.57.02.62.17s.02.39-.09.49-.5.12-.63.05c-.16-.08-.07-.59.1-.71Z"/>
      <path class="st1" d="M11.08,62.23c.12-.09.57.02.62.17s.02.39-.09.49-.5.12-.63.05c-.16-.08-.07-.59.1-.71Z"/>
    </g>
  </g>
</svg>